<?xml version="1.0" encoding="UTF-8"?>
<svg width="84px" height="90px" viewBox="0 0 84 90" version="1.1" xmlns="http://www.w3.org/2000/svg" xmlns:xlink="http://www.w3.org/1999/xlink">
    <!-- Generator: Sketch 50.2 (55047) - http://www.bohemiancoding.com/sketch -->
    <title>noun_1616655_cc</title>
    <desc>Created with Sketch.</desc>
    <defs></defs>
    <g id="Page-1" stroke="none" stroke-width="1" fill="none" fill-rule="evenodd">
        <g id="home" transform="translate(-245.000000, -3516.000000)" fill-rule="nonzero">
            <g id="noun_375073_cc-(1)" transform="translate(230.000000, 3476.000000)">
                <g id="noun_1616655_cc" transform="translate(15.000000, 40.000000)">
                    <g id="Group">
                        <path d="M63.7875,52.7625 C55.35,52.7625 48.2625,49.725 44.6625,45.3375 L44.6625,48.2625 C44.6625,49.725 45.225,51.1875 46.0125,52.5375 C44.55,52.2 43.0875,51.975 41.625,51.975 C40.1625,51.975 38.5875,52.2 37.125,52.5375 C38.025,51.1875 38.475,49.8375 38.475,48.2625 L38.475,45.3375 C34.875,49.8375 27.7875,52.7625 19.35,52.7625 C10.9125,52.7625 3.825,49.725 0.225,45.3375 L0.225,48.2625 C0.225,54.5625 8.775,59.7375 19.35,59.7375 C22.05,59.7375 24.6375,59.4 27,58.8375 C26.325,59.7375 25.65,60.6375 25.0875,61.65 C25.0875,61.65 25.0875,61.65 25.0875,61.65 C23.2875,61.9875 21.375,62.1 19.35,62.1 C10.9125,62.1 3.825,59.0625 0.225,54.675 L0.225,57.375 C0.225,63.675 8.775,68.85 19.35,68.85 C20.475,68.85 21.6,68.7375 22.725,68.625 C22.6125,69.4125 22.6125,70.0875 22.6125,70.875 C22.6125,70.875 22.6125,70.875 22.6125,70.9875 C21.6,71.1 20.475,71.1 19.35,71.1 C10.9125,71.1 3.825,68.0625 0.225,63.675 L0.225,66.6 C0.225,72.9 8.775,78.075 19.35,78.075 C20.925,78.075 22.3875,77.9625 23.7375,77.7375 C26.6625,84.9375 33.525,90 41.7375,90 C49.95,90 56.8125,84.9375 59.5125,77.7375 C60.975,77.9625 62.325,78.075 63.9,78.075 C74.475,78.075 83.025,72.9 83.025,66.6 L83.025,63.675 C79.425,68.175 72.3375,71.1 63.9,71.1 C62.775,71.1 61.7625,71.1 60.75,70.9875 C60.75,70.9875 60.75,70.9875 60.75,70.875 C60.75,70.0875 60.75,69.3 60.6375,68.625 C61.7625,68.7375 62.775,68.85 63.9,68.85 C74.475,68.85 83.025,63.675 83.025,57.375 L83.025,54.45 C79.425,58.95 72.3375,61.875 63.9,61.875 C61.875,61.875 60.075,61.7625 58.275,61.425 C58.275,61.425 58.275,61.425 58.275,61.425 C57.7125,60.4125 57.0375,59.5125 56.3625,58.6125 C58.725,59.175 61.2,59.5125 63.9,59.5125 C74.475,59.5125 83.025,54.3375 83.025,48.0375 L83.025,45.1125 C79.3125,49.8375 72.3375,52.7625 63.7875,52.7625 Z M57.6,70.9875 C57.6,75.2625 55.9125,79.2 52.9875,82.2375 C49.95,85.275 46.0125,86.85 41.7375,86.85 C37.4625,86.85 33.525,85.1625 30.4875,82.2375 C27.45,79.2 25.875,75.2625 25.875,70.9875 C25.875,66.7125 27.5625,62.775 30.4875,59.7375 C33.525,56.7 37.4625,55.125 41.7375,55.125 C46.0125,55.125 49.95,56.8125 52.9875,59.7375 C55.9125,62.775 57.6,66.7125 57.6,70.9875 Z" id="Shape" fill="#FFECC7"></path>
                        <path d="M63.7875,43.65 C55.35,43.65 48.2625,40.6125 44.6625,36.225 L44.6625,39.15 C44.6625,45.45 53.2125,50.625 63.7875,50.625 C74.3625,50.625 82.9125,45.45 82.9125,39.15 L82.9125,36.225 C79.3125,40.6125 72.3375,43.65 63.7875,43.65 Z" id="Shape" fill="#FFDC9F"></path>
                        <path d="M63.7875,34.425 C55.35,34.425 48.2625,31.3875 44.6625,27 L44.6625,29.925 C44.6625,36.225 53.2125,41.4 63.7875,41.4 C74.3625,41.4 82.9125,36.225 82.9125,29.925 L82.9125,27 C79.3125,31.5 72.3375,34.425 63.7875,34.425 Z" id="Shape" fill="#FFDC9F"></path>
                        <path d="M63.7875,25.3125 C55.35,25.3125 48.2625,22.275 44.6625,17.8875 L44.6625,20.8125 C44.6625,27.1125 53.2125,32.2875 63.7875,32.2875 C74.3625,32.2875 82.9125,27.1125 82.9125,20.8125 L82.9125,17.8875 C79.3125,22.275 72.3375,25.3125 63.7875,25.3125 Z" id="Shape" fill="#FFD893"></path>
                        <path d="M63.7875,0 C53.2125,0 44.6625,5.175 44.6625,11.475 C44.6625,17.775 53.2125,22.95 63.7875,22.95 C74.3625,22.95 82.9125,17.775 82.9125,11.475 C82.9125,5.175 74.3625,0 63.7875,0 Z" id="Shape" fill="#FFCA76"></path>
                        <path d="M19.4625,50.5125 C30.0375,50.5125 38.5875,45.3375 38.5875,39.0375 C38.5875,32.7375 30.0375,27.5625 19.4625,27.5625 C8.8875,27.5625 0.3375,32.7375 0.3375,39.0375 C0.3375,45.3375 8.8875,50.5125 19.4625,50.5125 Z" id="Shape" fill="#FFCA76"></path>
                        <path d="M40.725,66.4875 C41.0625,66.2625 41.5125,66.15 42.075,66.15 C43.2,66.15 44.1,66.375 44.6625,66.9375 L45.5625,67.6125 L47.7,64.125 L46.6875,63.675 C45.7875,63.1125 44.775,62.775 43.7625,62.55 L43.7625,59.9625 L39.825,59.9625 L39.825,62.6625 C38.5875,63 38.1375,63.45 37.4625,64.125 C36.675,65.025 36.225,66.0375 36.225,67.275 C36.225,69.4125 37.9125,71.1 41.175,72.5625 C41.9625,72.9 43.425,73.575 43.425,74.475 C43.425,74.8125 43.3125,75.15 42.975,75.375 C42.6375,75.7125 42.075,75.825 41.4,75.825 C40.1625,75.825 39.2625,75.4875 38.3625,74.8125 L37.575,74.25 L35.6625,77.625 L36.225,78.075 C37.2375,78.8625 38.3625,79.3125 39.6,79.5375 L39.6,82.0125 L43.65,82.0125 L43.65,79.3125 C44.6625,78.975 45.5625,78.4125 46.2375,77.625 C47.1375,76.6125 47.5875,75.6 47.5875,74.3625 C47.5875,73.125 47.25,72 46.4625,71.1 C45.7875,70.3125 44.55,69.525 42.975,68.85 C40.5,67.725 40.5,67.05 40.5,67.05 C40.3875,66.825 40.5,66.7125 40.725,66.4875 Z" id="Shape" fill="#FFCA76"></path>
                    </g>
                </g>
            </g>
        </g>
    </g>
</svg>