<?xml version="1.0" encoding="UTF-8"?>
<svg width="97px" height="117px" viewBox="0 0 97 117" version="1.1" xmlns="http://www.w3.org/2000/svg" xmlns:xlink="http://www.w3.org/1999/xlink">
    <!-- Generator: Sketch 50.2 (55047) - http://www.bohemiancoding.com/sketch -->
    <title>noun_1346639_cc</title>
    <desc>Created with Sketch.</desc>
    <defs></defs>
    <g id="Page-1" stroke="none" stroke-width="1" fill="none" fill-rule="evenodd">
        <g id="home" transform="translate(-1022.000000, -3288.000000)">
            <g id="noun_965231_cc" transform="translate(1017.000000, 3267.000000)">
                <g id="noun_1346639_cc" transform="translate(60.417931, 84.849877) rotate(-25.000000) translate(-60.417931, -84.849877) translate(24.917931, 29.849877)">
                    <path d="M69.9526722,0.96748538 C69.5580057,0.363664717 68.8879256,3.55271368e-15 68.169419,3.55271368e-15 L44.0493123,3.55271368e-15 C43.199179,3.55271368e-15 42.4298989,0.50754386 42.0917656,1.29169591 L37.4690457,12.015731 L49.064139,38.9136257 L44.428619,38.9136257 L28.2105923,1.29169591 C27.8726723,0.50754386 27.1036056,3.55271368e-15 26.2530456,3.55271368e-15 L2.13336563,3.55271368e-15 C1.41485894,3.55271368e-15 0.744352289,0.363664717 0.349898999,0.96748538 C-0.0443410007,1.57130604 -0.109834341,2.3340156 0.175818939,2.99680312 L15.6584856,38.9136257 L11.6597656,38.9136257 C10.4815257,38.9136257 9.5264323,39.8736062 9.5264323,41.0578752 C9.5264323,42.2421442 10.4815257,43.2021248 11.6597656,43.2021248 L14.2784323,43.2021248 L14.2784323,44.4402144 C14.2784323,47.4606043 16.4930456,49.9710916 19.3762457,50.4168811 C9.90339229,55.9031579 3.51256565,66.1867642 3.51256565,77.9426121 C3.51256565,95.4461209 17.6802457,109.686082 35.0946456,109.686082 C52.5088323,109.686082 66.6765123,95.4461209 66.6765123,77.9426121 C66.6765123,66.1953411 60.2948589,55.9181677 50.8333123,50.4291033 C53.7615256,50.0231969 56.0243523,47.4929825 56.0243523,44.4402144 L56.0243523,43.2021248 L58.6428056,43.2021248 C59.8210457,43.2021248 60.7761389,42.2421442 60.7761389,41.0578752 C60.7761389,39.8736062 59.8210457,38.9136257 58.6428056,38.9136257 L54.6438722,38.9136257 L70.1267523,2.99680312 C70.4124056,2.3340156 70.3469122,1.57130604 69.9526722,0.96748538 Z" id="Path" fill="#16CCBB"></path>
                    <path d="M58.1436056,77.9426121 C58.1436056,90.7167642 47.803979,101.109513 35.0946456,101.109513 C22.385099,101.109513 12.0454723,90.7167642 12.0454723,77.9426121 C12.0454723,65.1680312 22.385099,54.775497 35.0946456,54.775497 C47.803979,54.775497 58.1436056,65.1680312 58.1436056,77.9426121 Z" id="Path" fill="#FFFFFF"></path>
                    <path d="M51.7576856,44.4402144 C51.7576856,45.409844 50.9726189,46.1989278 50.0079257,46.1989278 L20.294859,46.1989278 C19.3299523,46.1989278 18.545099,45.409844 18.545099,44.4402144 L18.545099,43.2021248 L18.907979,43.2021248 L43.027659,43.2021248 L47.6636057,43.2021248 L51.3948057,43.2021248 L51.7576856,43.2021248 L51.7576856,44.4402144 Z" id="Path" fill="#FFFFFF"></path>
                    <path d="M16.3120537,77.9425478 C16.3120537,88.3522358 24.737867,96.8209493 35.0945603,96.8209493 C45.4512536,96.8209493 53.8768536,88.3522358 53.8768536,77.9425478 C53.8768536,67.5328597 45.4512536,59.0639317 35.0945603,59.0639317 C24.737867,59.0639317 16.3120537,67.5328597 16.3120537,77.9425478 Z" id="Path" fill="#8CE7DF"></path>
                </g>
            </g>
        </g>
    </g>
</svg>