<?xml version="1.0" encoding="UTF-8"?>
<svg width="100px" height="100px" viewBox="0 0 100 100" version="1.1" xmlns="http://www.w3.org/2000/svg" xmlns:xlink="http://www.w3.org/1999/xlink">
    <!-- Generator: Sketch 50.2 (55047) - http://www.bohemiancoding.com/sketch -->
    <title>noun_965231_cc</title>
    <desc>Created with Sketch.</desc>
    <defs></defs>
    <g id="Page-1" stroke="none" stroke-width="1" fill="none" fill-rule="evenodd">
        <g id="home" transform="translate(-236.000000, -3307.000000)" fill-rule="nonzero">
            <g id="noun_965231_cc" transform="translate(229.000000, 3267.000000)">
                <g transform="translate(7.000000, 40.000000)" id="Group">
                    <g>
                        <path d="M71.5245478,6.64082687 C73.9276486,6.04651163 75.4521964,7.42894057 76.744186,9.88372093 C78.9276486,14.0568475 81.4082687,18.0878553 83.8372093,22.1447028 C84.7416021,23.6434109 84.8449612,24.9354005 83.9147287,26.5116279 C79.2635659,34.4186047 74.6899225,42.3514212 70.1421189,50.3100775 C69.121447,52.1059432 68.6175711,51.9896641 67.3385013,50.3488372 C64.5478036,46.7700258 64.6770026,43.6950904 67.2868217,39.9483204 C70.3488372,35.5555556 72.6873385,30.6718346 75.4392765,26.0594315 C76.2144703,24.754522 76.1369509,23.7596899 75.3875969,22.5064599 C72.8682171,18.2945736 70.4134367,14.0439276 68.0103359,9.76744186 C66.3953488,6.88630491 66.5503876,6.67958656 69.9741602,6.65374677 C70.3229974,6.64082687 70.6976744,6.64082687 71.5245478,6.64082687 Z" id="Shape" fill="#FFAE84"></path>
                        <path d="M98.0878553,47.1059432 C99.8062016,48.875969 99.379845,50.9043928 97.9069767,53.2428941 C95.4005168,57.2351421 93.1653747,61.4082687 90.8914729,65.5426357 C90.0516796,67.0671835 88.9793282,67.8165375 87.1576227,67.8165375 C77.997416,67.7777778 68.8242894,67.8165375 59.6640827,67.8940568 C57.5968992,67.9069767 57.4418605,67.4289406 58.2170543,65.4780362 C59.9095607,61.2661499 62.6356589,59.8320413 67.1705426,60.1937984 C72.5064599,60.6330749 77.9069767,60.1808786 83.2687339,60.245478 C84.7803618,60.2583979 85.6072351,59.7028424 86.3178295,58.4108527 C88.6821705,54.1085271 91.124031,49.8578811 93.6175711,45.620155 C95.2971576,42.7648579 95.5555556,42.8036176 97.2997416,45.749354 C97.4935401,46.0723514 97.6744186,46.3824289 98.0878553,47.1059432 Z" id="Shape" fill="#FFAE84"></path>
                        <path d="M76.498708,90.4134367 C75.8397933,92.7906977 73.8630491,93.4496124 71.1111111,93.3462532 C66.3953488,93.1912145 61.6666667,93.3591731 56.9509044,93.4754522 C55.2067183,93.5142119 54.0310078,92.9715762 53.1136951,91.3953488 C48.5271318,83.4625323 43.875969,75.5555556 39.1989664,67.6744186 C38.1395349,65.8914729 38.4883721,65.5167959 40.5555556,65.2196382 C45.0516796,64.5607235 47.6614987,66.1886305 49.625323,70.2971576 C51.9379845,75.129199 55.0387597,79.5736434 57.6873385,84.2377261 C58.4366925,85.5555556 59.3410853,85.9819121 60.8139535,85.9431525 C65.7235142,85.8268734 70.6330749,85.7881137 75.5297158,85.8139535 C78.8372093,85.8268734 78.9276486,86.0723514 77.2739018,89.0568475 C77.0930233,89.379845 76.9121447,89.7028424 76.498708,90.4134367 Z" id="Shape" fill="#FFAE84"></path>
                        <path d="M28.2170543,93.5788114 C25.8268734,94.1989664 24.2764858,92.8294574 22.9715762,90.4005168 C20.7364341,86.25323 18.2041344,82.248062 15.7364341,78.2299742 C14.8191214,76.744186 14.7028424,75.4521964 15.6072351,73.8630491 C20.1550388,65.9043928 24.6382429,57.9069767 29.0956072,49.8966408 C30.1033592,48.0878553 30.5943152,48.1912145 31.8992248,49.8320413 C34.7286822,53.3850129 34.6382429,56.4599483 32.0801034,60.2325581 C29.0697674,64.6640827 26.7958656,69.5736434 24.0956072,74.2118863 C23.3333333,75.5297158 23.4237726,76.5245478 24.1860465,77.7648579 C26.7571059,81.9379845 29.250646,86.1627907 31.7183463,90.4134367 C33.372093,93.2816537 33.2170543,93.4883721 29.7932817,93.5529716 C29.4056848,93.5658915 29.0310078,93.5658915 28.2170543,93.5788114 Z" id="Shape" fill="#FFAE84"></path>
                        <path d="M1.17571059,53.4366925 C-0.568475452,51.6795866 -0.167958656,49.6511628 1.27906977,47.2997416 C3.74677003,43.2816537 5.93023256,39.0826873 8.15245478,34.9095607 C8.97932817,33.372093 10.0258398,32.6098191 11.8604651,32.5968992 C21.0206718,32.5322997 30.1937984,32.377261 39.3540052,32.1963824 C41.4211886,32.1576227 41.5762274,32.6356589 40.8268734,34.5865633 C39.1860465,38.8242894 36.4857881,40.2842377 31.9379845,39.9741602 C26.6020672,39.5994832 21.2015504,40.1033592 15.8397933,40.1162791 C14.3281654,40.1162791 13.501292,40.6976744 12.8165375,41.9896641 C10.503876,46.3178295 8.11369509,50.6072351 5.67183463,54.8578811 C4.03100775,57.7260982 3.77260982,57.6873385 1.98966408,54.7803618 C1.78294574,54.4702842 1.58914729,54.1472868 1.17571059,53.4366925 Z" id="Shape" fill="#FFAE84"></path>
                        <path d="M22.2351421,9.87080103 C22.8682171,7.48062016 24.8320413,6.80878553 27.5839793,6.87338501 C32.2997416,6.97674419 37.0284238,6.74418605 41.744186,6.57622739 C43.4883721,6.51162791 44.6770026,7.04134367 45.6072351,8.61757106 C50.2842377,16.498708 55.0258398,24.3410853 59.8062016,32.1705426 C60.878553,33.9405685 60.5426357,34.3152455 58.4754522,34.6511628 C53.9922481,35.3617571 51.3565891,33.7596899 49.3410853,29.6770026 C46.9767442,24.8837209 43.8242894,20.4780362 41.1111111,15.8397933 C40.3488372,14.5348837 39.4444444,14.1085271 37.9715762,14.1602067 C33.0620155,14.3410853 28.1653747,14.4315245 23.255814,14.4702842 C19.9483204,14.496124 19.8449612,14.250646 21.4728682,11.25323 C21.6537468,10.9173127 21.8346253,10.5943152 22.2351421,9.87080103 Z" id="Shape" fill="#FFAE84"></path>
                        <path d="M37.5193798,20.6718346 C32.1963824,20.6976744 26.873385,20.9043928 21.5503876,20.9173127 C20.3617571,18.8888889 18.1395349,17.5193798 15.620155,17.5193798 C11.8217054,17.5193798 8.73385013,20.6072351 8.73385013,24.4056848 C8.73385013,28.2041344 11.8217054,31.2919897 15.620155,31.2919897 C17.997416,31.2919897 20.0904393,30.0904393 21.3307494,28.255814 C24.9483204,28.1136951 28.5788114,27.9328165 32.1705426,28.2041344 C35.9560724,28.4883721 37.7002584,26.5891473 39.2377261,23.7855297 C40.5943152,21.2661499 40.3359173,20.6589147 37.5193798,20.6718346 Z M15.620155,28.0103359 C15.2842377,28.0103359 14.9483204,27.9586563 14.6382429,27.881137 C13.126615,27.4547804 12.0155039,26.0594315 12.0155039,24.4056848 C12.0155039,22.4160207 13.630491,20.8010336 15.620155,20.8010336 C16.2144703,20.8010336 16.7829457,20.9431525 17.2868217,21.2015504 C18.4366925,21.8087855 19.2248062,23.0103359 19.2248062,24.4056848 C19.2248062,26.3953488 17.6098191,28.0103359 15.620155,28.0103359 Z" id="Shape" fill="#F78469"></path>
                        <path d="M21.744186,45.7622739 C20.2713178,43.3204134 19.5994832,43.2299742 18.2041344,45.6718346 C15.3359173,50.6459948 12.6614987,55.7235142 9.75452196,60.6718346 C9.70284238,60.7622739 9.65116279,60.8527132 9.5994832,60.9302326 C5.90439276,61.0335917 2.91989664,64.0826873 2.91989664,67.8036176 C2.91989664,71.6020672 6.00775194,74.6899225 9.80620155,74.6899225 C13.6046512,74.6899225 16.6925065,71.6020672 16.6925065,67.8036176 C16.6925065,66.6925065 16.4211886,65.6330749 15.9560724,64.7028424 C17.8940568,61.1111111 19.7157623,57.4418605 22.0284238,54.0956072 C24.1602067,50.9689922 23.3850129,48.501292 21.744186,45.7622739 Z M13.2170543,68.9405685 C12.7390181,70.374677 11.3824289,71.4211886 9.79328165,71.4211886 C7.80361757,71.4211886 6.18863049,69.8062016 6.18863049,67.8165375 C6.18863049,66.3307494 7.09302326,65.0387597 8.38501292,64.496124 C8.81136951,64.3152455 9.28940568,64.2118863 9.79328165,64.2118863 C11.7829457,64.2118863 13.3979328,65.8268734 13.3979328,67.8165375 C13.3979328,68.2041344 13.3333333,68.5788114 13.2170543,68.9405685 Z" id="Shape" fill="#F78469"></path>
                        <path d="M69.4444444,25.245478 C66.7700258,20.4392765 63.9147287,15.7364341 61.2661499,10.9173127 C62.0801034,9.79328165 62.5452196,8.41085271 62.5452196,6.9250646 C62.5452196,3.12661499 59.4573643,0.0387596899 55.6589147,0.0387596899 C51.8604651,0.0387596899 48.7726098,3.12661499 48.7726098,6.9250646 C48.7726098,10.2713178 51.1757106,13.0749354 54.3540052,13.6821705 C56.4211886,17.1447028 58.5917313,20.5426357 60.245478,24.1860465 C61.8217054,27.6485788 64.3281654,28.255814 67.5322997,28.2428941 C70.4005168,28.2299742 70.8139535,27.7002584 69.4444444,25.245478 Z M59.1731266,7.75193798 C58.7984496,9.34108527 57.3643411,10.5297158 55.6589147,10.5297158 C54.121447,10.5297158 52.7906977,9.54780362 52.2868217,8.19121447 C52.1447028,7.80361757 52.0542636,7.37726098 52.0542636,6.9250646 C52.0542636,4.93540052 53.6692506,3.32041344 55.6589147,3.32041344 C57.6485788,3.32041344 59.2635659,4.93540052 59.2635659,6.9250646 C59.2764858,7.20930233 59.2377261,7.48062016 59.1731266,7.75193798 Z" id="Shape" fill="#F78469"></path>
                        <path d="M90.0387597,26.4082687 C86.2403101,26.4082687 83.1524548,29.496124 83.1524548,33.2945736 C83.1524548,34.0826873 83.2816537,34.8320413 83.5271318,35.5297158 C81.5116279,39.1472868 79.625323,42.8423773 77.2609819,46.2015504 C75.0645995,49.3023256 75.8010336,51.7829457 77.4160207,54.5348837 C78.8630491,57.002584 79.5348837,57.0930233 80.9560724,54.6770026 C83.8113695,49.8578811 86.4857881,44.9354005 89.3669251,40.1421189 C89.5865633,40.1679587 89.8062016,40.1679587 90.0258398,40.1679587 C93.8242894,40.1679587 96.9121447,37.0801034 96.9121447,33.2816537 C96.9121447,29.4832041 93.8372093,26.4082687 90.0387597,26.4082687 Z M90.9560724,36.7700258 C90.6589147,36.8475452 90.3617571,36.8863049 90.0387597,36.8863049 C88.0490956,36.8863049 86.4341085,35.2713178 86.4341085,33.2816537 C86.4341085,32.5322997 86.6666667,31.8346253 87.0671835,31.25323 C87.7131783,30.2971576 88.8113695,29.6770026 90.0387597,29.6770026 C92.0284238,29.6770026 93.6434109,31.2919897 93.6434109,33.2816537 C93.6434109,34.9612403 92.5064599,36.369509 90.9560724,36.7700258 Z" id="Shape" fill="#F78469"></path>
                        <path d="M84.4186047,69.3410853 C82.2093023,69.3410853 80.2325581,70.4005168 78.9664083,72.0284238 C74.8966408,72.118863 70.8268734,72.3385013 66.7958656,71.9767442 C63.0103359,71.6408269 61.2403101,73.5271318 59.6770026,76.3049096 C58.2816537,78.7984496 58.5271318,79.4186047 61.3436693,79.4315245 C67.002584,79.4702842 72.6614987,79.3023256 78.3204134,79.379845 C79.4702842,81.5762274 81.7700258,83.0878553 84.4186047,83.0878553 C88.2170543,83.0878553 91.3049096,80 91.3049096,76.2015504 C91.3049096,72.4289406 88.2170543,69.3410853 84.4186047,69.3410853 Z M84.4186047,79.8191214 C83.5271318,79.8191214 82.7131783,79.496124 82.0801034,78.9534884 C81.3049096,78.2945736 80.8139535,77.3126615 80.8139535,76.2144703 C80.8139535,74.2248062 82.4289406,72.6098191 84.4186047,72.6098191 L84.4315245,72.6098191 C86.4211886,72.6098191 88.0361757,74.2248062 88.0361757,76.2144703 C88.0232558,78.2041344 86.4082687,79.8191214 84.4186047,79.8191214 Z" id="Shape" fill="#F78469"></path>
                        <path d="M45.2583979,86.2919897 C43.1653747,82.881137 40.9560724,79.5090439 39.2635659,75.9043928 C37.6485788,72.4677003 35.129199,71.8863049 31.9379845,71.9379845 C29.0826873,71.9767442 28.6692506,72.5193798 30.0645995,74.9483204 C32.7906977,79.7157623 35.6976744,84.379845 38.3979328,89.1472868 C37.622739,90.2583979 37.1705426,91.6149871 37.1705426,93.0620155 C37.1705426,96.8604651 40.2583979,99.9483204 44.0568475,99.9483204 C47.8552972,99.9483204 50.9431525,96.8604651 50.9431525,93.0620155 C50.9431525,89.6899225 48.4754522,86.873385 45.2583979,86.2919897 Z M44.0568475,96.6795866 C42.0671835,96.6795866 40.4521964,95.0645995 40.4521964,93.0749354 C40.4521964,92.8165375 40.4780362,92.5581395 40.5297158,92.3126615 C40.878553,90.6847545 42.3255814,89.4573643 44.0568475,89.4573643 C45.5943152,89.4573643 46.9121447,90.4263566 47.4289406,91.7829457 C47.5710594,92.1834625 47.6614987,92.6098191 47.6614987,93.0620155 C47.6614987,95.0645995 46.0465116,96.6795866 44.0568475,96.6795866 Z" id="Shape" fill="#F78469"></path>
                    </g>
                </g>
            </g>
        </g>
    </g>
</svg>