<?xml version="1.0" encoding="UTF-8"?>
<svg width="101px" height="100px" viewBox="0 0 101 100" version="1.1" xmlns="http://www.w3.org/2000/svg" xmlns:xlink="http://www.w3.org/1999/xlink">
    <!-- Generator: Sketch 50.2 (55047) - http://www.bohemiancoding.com/sketch -->
    <title>noun_375073_cc (1)</title>
    <desc>Created with Sketch.</desc>
    <defs></defs>
    <g id="Page-1" stroke="none" stroke-width="1" fill="none" fill-rule="evenodd">
        <g id="home" transform="translate(-641.000000, -3305.000000)">
            <g id="noun_375073_cc-(1)" transform="translate(623.000000, 3267.000000)">
                <g transform="translate(18.000000, 38.000000)" id="Path">
                    <path d="M7.45501894,41.9105114 C9.67566288,39.6898674 8.24810606,37.3106061 5.8688447,37.1519886 C1.90340909,36.8347538 -0.317234848,32.7107008 2.85511364,29.2211174 C6.34469697,26.0487689 10.6273674,28.2694129 10.7859848,32.2348485 C10.9446023,34.6141098 13.3238636,36.0416667 15.5445076,33.8210227 L20.7788826,28.5866477 C22.3650568,27.0004735 24.9029356,27.0004735 26.4891098,28.5866477 L31.7234848,33.8210227 C33.9441288,36.0416667 36.3233902,34.6141098 36.3233902,32.2348485 C36.640625,28.2694129 40.764678,26.0487689 44.2542614,29.3797348 C47.4266098,32.8693182 45.2059659,37.1519886 41.2405303,37.3106061 C38.8612689,37.4692235 37.4337121,39.8484848 39.6543561,41.9105114 L45.0473485,47.3035038 C46.6335227,48.889678 46.6335227,51.4275568 45.0473485,53.0137311 C45.0473485,53.0137311 45.0473485,53.0137311 45.0473485,53.0137311 L41.2405303,56.8205492 C40.764678,55.5516098 40.1302083,54.4412879 39.1785038,53.4895833 C35.8475379,50.1586174 30.9303977,50.3172348 27.282197,53.6482008 L27.1235795,53.8068182 L26.9649621,53.9654356 C23.6339962,57.6136364 23.4753788,62.6893939 26.8063447,65.8617424 C27.7580492,66.813447 28.8683712,67.4479167 30.1373106,67.9237689 L26.4891098,71.5719697 C24.9029356,73.1581439 22.2064394,73.1581439 20.6202652,71.5719697 L15.3858902,66.3375947 C13.1652462,64.1169508 10.9446023,65.3858902 10.7859848,67.9237689 C10.46875,71.8892045 6.34469697,74.1098485 2.85511364,70.7788826 C-0.317234848,67.2892992 1.90340909,63.0066288 5.71022727,62.8480114 C8.08948864,62.6893939 9.35842803,60.46875 7.13778409,58.2481061 L1.90340909,53.0137311 C0.317234848,51.4275568 0.317234848,48.889678 1.90340909,47.3035038 L7.45501894,41.9105114 Z" fill="#8DB5FC"></path>
                    <path d="M29.3442235,20.0213068 C27.7580492,21.6074811 27.7580492,24.3039773 29.3442235,25.8901515 L32.9924242,29.5383523 C33.4682765,28.2694129 34.1027462,27.1590909 35.0544508,26.2073864 C38.2267992,23.0350379 43.3025568,23.0350379 46.9507576,26.3660038 L47.109375,26.5246212 L47.2679924,26.6832386 C50.5989583,30.3314394 50.7575758,35.407197 47.4266098,38.5795455 C46.4749053,39.53125 45.3645833,40.1657197 44.0956439,40.641572 L47.9024621,44.4483902 C47.9024621,44.4483902 47.9024621,44.4483902 47.9024621,44.4483902 C49.4886364,46.0345644 52.0265152,46.0345644 53.6126894,44.4483902 L59.0056818,39.0553977 C61.2263258,36.8347538 63.4469697,38.2623106 63.6055871,40.641572 C63.922822,44.6070076 68.046875,46.8276515 71.5364583,43.655303 C74.7088068,40.1657197 72.4881629,36.0416667 68.6813447,35.7244318 C66.3020833,35.5658144 64.8745265,33.186553 67.0951705,31.1245265 L72.3295455,25.8901515 C73.9157197,24.3039773 73.9157197,21.7660985 72.3295455,20.1799242 L67.0951705,14.9455492 C64.8745265,12.7249053 66.3020833,10.3456439 68.6813447,10.1870265 C72.6467803,9.86979167 74.8674242,5.74573864 71.6950758,2.2561553 C68.2054924,-0.916193182 63.922822,1.30445076 63.7642045,5.26988636 C63.6055871,7.64914773 61.2263258,9.07670455 59.0056818,6.85606061 L53.7713068,1.62168561 C52.1851326,0.0355113636 49.6472538,0.0355113636 48.0610795,1.62168561 L42.8267045,6.85606061 C40.6060606,9.07670455 38.3854167,7.80776515 38.2267992,5.42850379 C37.9095644,1.46306818 33.7855114,-0.757575758 30.295928,2.57339015 C27.1235795,6.06297348 29.3442235,10.1870265 33.1510417,10.5042614 C35.530303,10.6628788 36.7992424,12.8835227 34.7372159,15.1041667 L29.3442235,20.0213068 Z" fill="#7292FE"></path>
                    <path d="M74.5501894,34.1382576 C77.7225379,37.3106061 77.7225379,42.3863636 74.391572,46.0345644 L74.2329545,46.1931818 L74.0743371,46.3517992 C70.4261364,49.6827652 65.3503788,49.8413826 62.1780303,46.5104167 C61.2263258,45.5587121 60.5918561,44.4483902 60.1160038,43.1794508 L56.3091856,46.9862689 C56.3091856,46.9862689 56.3091856,46.9862689 56.3091856,46.9862689 C54.7230114,48.5724432 54.7230114,51.110322 56.3091856,52.6964962 L61.702178,58.0894886 C63.922822,60.3101326 62.4952652,62.5307765 60.1160038,62.6893939 C56.1505682,63.0066288 53.9299242,67.1306818 57.1022727,70.6202652 C60.5918561,73.7926136 64.7159091,71.5719697 65.0331439,67.7651515 C65.1917614,65.3858902 67.5710227,63.9583333 69.6330492,66.1789773 L74.8674242,71.4133523 C76.4535985,72.9995265 78.9914773,72.9995265 80.5776515,71.4133523 L85.8120265,66.1789773 C88.0326705,63.9583333 90.4119318,65.3858902 90.5705492,67.7651515 C90.8877841,71.7305871 95.0118371,73.9512311 98.5014205,70.7788826 C101.673769,67.2892992 99.453125,63.0066288 95.4876894,62.8480114 C93.108428,62.6893939 91.6808712,60.3101326 93.9015152,58.0894886 L99.1358902,52.8551136 C100.722064,51.2689394 100.722064,48.7310606 99.1358902,47.1448864 L93.9015152,41.9105114 C91.6808712,39.6898674 92.9498106,37.4692235 95.329072,37.3106061 C99.2945076,36.9933712 101.515152,32.8693182 98.1841856,29.3797348 C94.6946023,26.2073864 90.5705492,28.4280303 90.2533144,32.2348485 C90.094697,34.6141098 87.874053,35.8830492 85.6534091,33.8210227 L80.4190341,28.5866477 C78.8328598,27.0004735 76.1363636,27.0004735 74.5501894,28.5866477 L70.9019886,32.2348485 C72.4881629,32.5520833 73.5984848,33.186553 74.5501894,34.1382576 Z" fill="#6689FF"></path>
                    <path d="M32.8338068,89.9715909 C28.8683712,90.2888258 26.6477273,94.4128788 29.8200758,97.9024621 C33.3096591,101.074811 37.5923295,98.8541667 37.750947,94.8887311 C37.9095644,92.5094697 40.2888258,91.0819129 42.5094697,93.3025568 L47.7438447,98.5369318 C49.3300189,100.123106 51.8678977,100.123106 53.454072,98.5369318 L58.688447,93.3025568 C60.9090909,91.0819129 63.1297348,92.3508523 63.2883523,94.7301136 C63.6055871,98.6955492 67.7296402,100.916193 71.2192235,97.5852273 C74.391572,94.0956439 72.170928,89.9715909 68.3641098,89.6543561 C65.9848485,89.4957386 64.7159091,87.2750947 66.7779356,85.0544508 L72.0123106,79.8200758 C73.5984848,78.2339015 73.5984848,75.5374053 72.0123106,73.9512311 L68.3641098,70.3030303 C67.8882576,71.5719697 67.2537879,72.6822917 66.3020833,73.6339962 C63.1297348,76.8063447 58.0539773,76.8063447 54.4057765,73.4753788 L54.2471591,73.3167614 L54.0885417,73.1581439 C50.7575758,69.5099432 50.5989583,64.4341856 53.9299242,61.2618371 C54.8816288,60.3101326 55.9919508,59.6756629 57.2608902,59.1998106 L53.454072,55.3929924 C53.454072,55.3929924 53.454072,55.3929924 53.454072,55.3929924 C51.8678977,53.8068182 49.3300189,53.8068182 47.7438447,55.3929924 L42.3508523,60.7859848 C40.1302083,63.0066288 37.9095644,61.579072 37.750947,59.1998106 C37.4337121,55.234375 33.3096591,53.0137311 29.8200758,56.1860795 C26.6477273,59.6756629 28.8683712,63.7997159 32.6751894,64.1169508 C35.0544508,64.2755682 36.4820076,66.6548295 34.2613636,68.7168561 L29.0269886,73.9512311 C27.4408144,75.5374053 27.4408144,78.0752841 29.0269886,79.6614583 L34.2613636,84.8958333 C36.640625,87.4337121 35.2130682,89.8129735 32.8338068,89.9715909 Z" fill="#86AAFF"></path>
                </g>
            </g>
        </g>
    </g>
</svg>