
<svg width="1600px" height="614px" viewBox="0 0 1600 614" version="1.1" xmlns="http://www.w3.org/2000/svg" xmlns:xlink="http://www.w3.org/1999/xlink">
    <!-- Generator: Sketch 50.2 (55047) - http://www.bohemiancoding.com/sketch -->
    <desc>Created with Sketch.</desc>
    <defs>
        <linearGradient x1="42.2190219%" y1="86.5101052%" x2="45.0473527%" y2="194.729618%" id="linearGradient-1">
            <stop stop-color="#EBF5FF" offset="0%"></stop>
            <stop stop-color="#FFFFFF" offset="100%"></stop>
        </linearGradient>
    </defs>
    <g id="Page-1" stroke="none" stroke-width="1" fill="none" fill-rule="evenodd">
        <g id="home" transform="translate(0.000000, -461.000000)" fill="url(#linearGradient-1)">
            <path d="M1580.74727,512.797988 C1572.58446,513.824231 1564.49034,515.38245 1556.5107,517.379718 C1545.49946,520.136567 1534.70775,523.729763 1524.14903,527.931703 C1511.4449,532.986151 1499.0815,538.920043 1487.31338,545.837081 C1478.89469,550.786481 1470.78171,556.238227 1462.93271,562.084579 C1450.5747,571.288442 1438.87256,581.46737 1428.64515,592.941896 C1421.29311,601.190896 1414.70333,610.110589 1408.8287,619.531283 C1403.41332,628.216637 1398.60533,637.328919 1395.43906,647.013581 C1393.43102,653.154877 1392.08289,659.526471 1391.33139,665.957323 C1390.69168,671.423884 1390.48427,676.932196 1390.7038,682.420305 C1390.93005,688.060601 1391.60748,693.678001 1392.54484,699.252304 C1393.38523,704.248841 1394.43571,709.210361 1395.85252,714.064139 C1397.16158,718.546208 1398.78176,722.936696 1400.58778,727.255804 C1402.00459,730.644291 1403.53453,733.989681 1405.36749,737.161337 C1407.59775,741.021195 1410.27244,744.622473 1413.09528,748.090419 C1415.89658,751.53143 1418.84063,754.839111 1421.96919,757.97171 C1426.93205,762.938618 1432.35552,767.459743 1438.05238,771.572795 C1448.01044,778.763228 1458.79945,784.706548 1469.6612,790.462666 C1480.57412,796.245719 1491.56246,801.840224 1502.17101,808.116197 C1507.47057,811.25149 1512.67585,814.557824 1517.84882,817.903214 C1521.1134,820.013611 1524.36587,822.140169 1527.59139,824.313865 C1531.45933,826.919875 1535.28956,829.593224 1538.87602,832.566904 C1541.40796,834.666527 1543.81734,836.914295 1546.14457,839.241523 C1549.19771,842.293316 1552.11078,845.481133 1554.84474,848.821136 C1557.66354,852.264841 1560.29244,855.868812 1562.66142,859.635742 C1564.93747,863.255875 1566.97245,867.026846 1568.80002,870.892091 C1571.43297,876.461007 1573.6336,882.227899 1575.68205,888.035195 C1577.54868,893.328022 1579.28736,898.654518 1580.97487,904.018725 C1582.76474,909.710197 1584.49535,915.444767 1586.92223,920.861498 C1588.32019,923.980629 1589.94709,926.993366 1591.64672,929.996675 C1593.07834,932.524572 1594.5598,935.044389 1596.40757,937.230205 C1597.44055,938.450384 1599.09843,939.531045 1600.31592,940.58153 C1600.31592,998.087492 1600.31592,1017.1204 1600.33075,1074.62636 C1066.71409,1074.62636 532.601829,1074.62636 -1,1074.62636 C-1,1057.10347 -1,1078.09079 -1,1060.56924 C0.947437186,1058.24201 2.88410017,1055.90401 4.80056152,1053.55119 C12.4071488,1044.214 19.7228326,1034.63708 27.4344684,1025.38877 C36.8416944,1014.10549 46.8374612,1003.31243 57.1227847,992.810278 C65.316566,984.445456 73.692162,976.263796 82.3761696,968.417483 C92.4244607,959.33887 102.883518,950.70604 113.72102,942.571517 C122.709398,935.824172 131.957705,929.420255 141.504995,923.502524 C152.160682,916.896591 163.189426,910.896707 174.529274,905.493444 C187.688616,899.224204 201.269499,893.761684 215.31906,889.95435 C225.784851,887.118041 236.51057,885.202926 247.307669,884.122812 C257.597032,883.093876 267.952388,882.823174 278.282155,883.165255 C287.681301,883.47636 297.060244,884.292506 306.382623,885.505951 C316.288156,886.794815 326.127697,888.532155 335.930875,890.460737 C347.331329,892.704465 358.680605,895.206774 369.9383,898.059244 C380.180527,900.65448 390.347334,903.539273 400.554544,906.277267 C414.181218,909.933762 427.876576,913.33033 441.67025,916.301316 C448.747554,917.825866 455.850448,919.237286 462.996438,920.378005 C471.649469,921.75845 480.368493,922.738902 489.137348,923.184685 C498.21192,923.645282 507.340364,923.532153 516.330089,922.271571 C523.766983,921.229167 531.109602,919.400246 538.174786,916.845413 C546.011672,914.011798 553.506476,910.285271 560.690176,906.061783 C566.329125,902.746022 571.775484,899.124543 577.042723,895.260645 C589.861331,885.858806 601.614639,875.030732 612.864254,863.766302 C624.701063,851.913332 635.981653,839.57687 647.431938,827.381819 C655.639187,818.641247 663.932629,809.972054 672.510242,801.596458 C676.666391,797.538624 680.888531,793.550822 685.089124,789.537431 C689.063458,785.742218 693.018937,781.925457 697.107747,778.256841 C704.694133,771.448891 712.737075,765.150023 721.026478,759.195929 C729.450558,753.144867 738.126485,747.449354 747.129678,742.32218 C755.625137,737.483216 764.410153,733.147946 773.399878,729.277314 C782.384217,725.408028 791.573265,722.002033 800.97241,719.319257 C806.859166,717.639828 812.828074,716.244569 818.84816,715.140213 C827.792095,713.499841 836.850506,712.50188 845.938547,712.026468 C855.103353,711.547016 864.297788,711.596847 873.435659,712.29717 C883.93512,713.102542 894.357815,714.765809 904.725291,716.697085 C919.384941,719.429693 933.931462,722.70101 948.27462,726.687465 C966.454741,731.740566 984.307595,737.942467 1002.20489,743.969287 C1015.7346,748.524081 1029.29124,752.979214 1042.97986,757.011459 C1054.18638,760.312406 1065.48179,763.330529 1076.90379,765.81533 C1086.28947,767.855694 1095.75999,769.53647 1105.30593,770.56406 C1113.47278,771.443504 1121.6935,771.843496 1129.91691,771.681883 C1138.10665,771.521617 1146.29774,770.802439 1154.33664,769.275196 C1162.43884,767.734485 1170.38751,765.372241 1178.0951,762.398561 C1186.54342,759.139364 1194.70354,755.144829 1202.41113,750.410913 C1208.67094,746.564523 1214.63177,742.2306 1220.26399,737.516886 C1234.82128,725.333956 1247.18468,710.621782 1258.37638,695.237567 C1265.88196,684.91992 1272.8623,674.300597 1279.92075,663.721676 C1290.13873,648.406147 1300.51968,633.175464 1311.37065,618.273394 C1318.70249,608.206249 1326.24847,598.288595 1334.33721,588.831538 C1342.07308,579.787941 1350.30592,571.163192 1358.88219,562.895338 C1369.80858,552.359514 1381.28984,542.401457 1393.42024,533.278401 C1406.13784,523.713602 1419.56923,515.069998 1433.56762,507.517282 C1441.05703,503.476955 1448.70807,499.747734 1456.45472,496.22457 C1468.60936,490.69471 1480.99835,485.669891 1493.62572,481.321154 C1504.7218,477.500352 1516.00374,474.200752 1527.42709,471.535484 C1541.31369,468.296489 1555.40904,465.99485 1569.54075,464.025864 C1575.48407,463.197598 1581.43547,462.427242 1587.40438,461.875064 C1591.52955,461.493927 1596.17727,461.216831 1600.33075,461 C1600.31592,471.804654 1600.34788,479.045221 1600.31592,489.408757 C1600.29808,495.190026 1600.29808,501.862035 1600.31592,510.829002 C1591.94032,511.018897 1586.07242,512.12864 1580.74727,512.797988 Z" id="Shape"></path>
        </g>
    </g>
</svg>
