<?xml version="1.0" encoding="UTF-8"?>
<svg version="1.1" viewBox="0 0 1600 241" xmlns="http://www.w3.org/2000/svg">
  <g fill="none" fill-rule="evenodd">
    <g transform="translate(0 -6062)" fill="#fff">
      <polygon points="12.523 6104 23.809 6110.5 34.941 6116.8 46.227 6123.1 57.667 6129.5 68.954 6135.7 80.394 6141.9 91.835 6147.9 103.28 6153.8 109.15 6156.7 114.87 6159.6 120.75 6162.6 126.47 6165.4 132.34 6168.1 138.22 6170.9 144.09 6173.5 149.97 6176.3 155.84 6179 161.72 6181.6 167.75 6184.2 173.62 6186.7 179.65 6189.2 185.68 6191.6 191.71 6194 197.74 6196.4 203.77 6198.7 209.8 6200.9 215.83 6203.2 222.01 6205.4 228.04 6207.6 234.23 6209.6 240.41 6211.6 246.59 6213.6 252.62 6215.6 258.96 6217.5 265.15 6219.3 271.33 6221.2 277.51 6222.9 283.85 6224.6 290.04 6226.1 296.38 6227.7 302.56 6229.2 308.9 6230.8 315.24 6232.1 321.58 6233.5 327.92 6234.8 334.25 6236 340.59 6237.2 347.09 6238.3 353.43 6239.4 359.76 6240.3 366.26 6241.3 372.6 6242.2 379.09 6243 385.43 6243.7 391.92 6244.5 398.42 6245.1 404.75 6245.7 411.25 6246.2 417.74 6246.7 424.23 6247.1 430.73 6247.4 437.07 6247.8 443.56 6248.1 450.05 6248.2 456.55 6248.4 463.04 6248.4 469.53 6248.4 476.03 6248.4 482.52 6248.2 488.86 6248.1 495.35 6247.8 501.85 6247.4 508.34 6247 514.83 6246.5 521.17 6245.9 527.66 6245.3 534.16 6244.5 540.5 6243.7 546.99 6242.8 553.48 6241.9 559.82 6240.8 566.16 6239.7 572.65 6238.6 578.99 6237.4 585.33 6236 591.67 6234.6 598.01 6233.2 604.19 6231.7 610.53 6230.1 616.87 6228.4 623.06 6226.7 629.24 6224.9 635.42 6223 641.61 6221 647.79 6219 653.98 6217 660.16 6214.8 666.19 6212.7 672.22 6210.3 678.25 6208 684.28 6205.7 690.31 6203.2 696.34 6200.8 702.21 6198.3 708.24 6195.7 714.12 6193 719.99 6190.4 725.87 6187.6 737.62 6182.2 749.21 6176.5 760.96 6170.9 772.56 6165.4 778.43 6162.6 784.31 6159.8 790.18 6157.2 796.06 6154.5 807.96 6149.3 819.71 6144 831.62 6138.9 843.52 6134 867.48 6123.9 879.39 6119 891.45 6114 897.48 6111.7 903.51 6109.2 909.54 6106.9 915.57 6104.7 921.6 6102.6 927.78 6100.4 933.81 6098.4 939.99 6096.4 946.18 6094.4 952.36 6092.5 958.7 6090.8 964.89 6089.1 971.07 6087.4 977.41 6085.7 983.75 6084.2 989.93 6082.6 996.27 6081.2 1002.6 6079.9 1008.9 6078.5 1015.3 6077.2 1021.6 6076.1 1028.1 6075.2 1034.5 6074.3 1041 6073.5 1047.3 6072.9 1053.8 6072.4 1060.3 6072 1066.8 6071.7 1073.3 6071.5 1079.8 6071.4 1086.2 6071.4 1092.7 6071.5 1099.1 6071.7 1105.6 6071.8 1112.1 6072.1 1118.6 6072.4 1125.1 6072.9 1131.4 6073.4 1137.9 6074 1144.4 6074.6 1150.7 6075.2 1157.2 6075.8 1170 6077.4 1183 6078.9 1195.9 6080.5 1208.7 6082.2 1221.5 6083.9 1247.2 6087.3 1272.7 6090.8 1298.4 6094.5 1311.2 6096.4 1324 6098.1 1336.9 6099.8 1349.7 6101.3 1356.2 6102.1 1362.5 6102.7 1369 6103.5 1375.5 6104.1 1381.9 6104.6 1388.3 6105.2 1394.8 6105.5 1401.3 6106 1407.8 6106.3 1414.2 6106.6 1420.7 6106.8 1427.2 6106.9 1433.6 6106.9 1440.1 6106.9 1446.6 6106.8 1453.1 6106.4 1459.6 6106.1 1466 6105.7 1472.5 6105.2 1478.9 6104.6 1485.3 6103.8 1491.8 6102.9 1498.1 6102 1504.6 6100.9 1507.7 6100.3 1510.9 6099.6 1514 6098.9 1517.3 6098.3 1520.4 6097.5 1523.6 6096.7 1526.7 6095.9 1529.8 6095.2 1533.1 6094.2 1536.1 6093.5 1539.2 6092.5 1542.3 6091.5 1545.4 6090.5 1548.5 6089.4 1551.6 6088.4 1554.7 6087.3 1557.6 6086 1560.7 6084.8 1563.7 6083.6 1566.6 6082.3 1569.5 6080.9 1572.5 6079.5 1575.4 6078.2 1578.2 6076.6 1581 6075.1 1583.9 6073.5 1586.5 6071.8 1589.3 6070.1 1592.1 6068.4 1594.7 6066.6 1597.4 6064.7 1600 6062.9 1600 6302.6 0 6302.6 0 6094.5"
      />
    </g>
  </g>
</svg>
