<?xml version="1.0" encoding="UTF-8"?>
<svg version="1.1" viewBox="0 0 103 25" xmlns="http://www.w3.org/2000/svg">
  <g fill="none" fill-rule="evenodd">
    <g transform="translate(-1 -62)" fill="#fff">
      <polygon points="1.6 62.58 2.39 62.97 2.79 63.17 3.19 63.36 3.59 63.55 3.99 63.73 4.39 63.92 4.79 64.1 5.19 64.28 5.6 64.45 6 64.63 6.41 64.8 6.82 64.97 7.23 65.14 8.04 65.48 8.87 65.8 9.69 66.12 10.52 66.43 10.93 66.58 11.35 66.73 11.76 66.88 12.18 67.03 12.6 67.17 13.02 67.32 13.43 67.46 13.85 67.59 14.27 67.73 14.69 67.86 15.12 68 15.54 68.13 15.96 68.25 16.39 68.38 16.81 68.5 17.24 68.62 17.66 68.74 18.09 68.85 18.52 68.97 18.94 69.08 19.37 69.18 19.8 69.29 20.23 69.39 20.66 69.49 21.09 69.58 21.53 69.68 21.96 69.77 22.39 69.85 22.82 69.94 23.26 70.02 23.69 70.1 24.13 70.18 24.57 70.25 25 70.32 25.44 70.38 25.88 70.45 26.31 70.51 26.75 70.57 27.19 70.62 27.63 70.67 28.07 70.72 28.51 70.76 28.95 70.8 29.39 70.84 29.83 70.88 30.27 70.91 30.71 70.94 31.15 70.96 31.59 70.98 32.03 71 32.48 71.02 32.92 71.03 33.36 71.04 33.8 71.05 34.24 71.05 34.68 71.05 35.13 71.05 35.57 71.04 36.01 71.03 36.45 71.02 36.89 71 37.33 70.98 37.78 70.96 38.22 70.93 38.66 70.9 39.1 70.87 39.54 70.84 39.98 70.8 40.42 70.76 40.86 70.71 41.3 70.66 41.74 70.61 42.17 70.55 42.61 70.49 43.05 70.43 43.49 70.36 43.92 70.29 44.36 70.22 44.79 70.14 45.23 70.06 45.66 69.98 46.1 69.89 46.53 69.8 46.96 69.7 47.39 69.6 47.82 69.5 48.25 69.4 48.68 69.29 49.11 69.18 49.53 69.07 49.96 68.95 50.38 68.83 50.81 68.71 51.23 68.58 52.08 68.33 52.92 68.07 53.77 67.81 54.61 67.55 55.46 67.29 56.3 67.04 57.15 66.79 57.58 66.67 58 66.55 58.43 66.44 58.85 66.32 59.28 66.21 59.71 66.11 60.14 66 60.57 65.9 61 65.81 61.43 65.71 61.87 65.62 62.3 65.54 62.73 65.45 63.17 65.37 63.6 65.3 64.04 65.23 64.48 65.16 64.91 65.1 65.35 65.04 65.79 64.98 66.23 64.93 66.67 64.89 67.11 64.85 67.55 64.81 67.99 64.78 68.43 64.75 68.87 64.73 69.31 64.71 69.76 64.7 70.2 64.69 70.64 64.69 71.08 64.7 71.52 64.71 71.97 64.72 72.41 64.74 72.85 64.76 73.29 64.8 73.73 64.83 74.17 64.88 74.61 64.93 75.05 64.98 75.49 65.05 75.92 65.12 76.36 65.19 76.79 65.28 77.22 65.37 77.65 65.47 78.08 65.58 78.51 65.7 78.93 65.81 79.36 65.94 79.78 66.07 80.2 66.2 80.62 66.34 81.04 66.47 81.46 66.62 81.88 66.76 82.3 66.91 82.71 67.07 82.91 67.15 83.12 67.24 83.32 67.32 83.52 67.41 83.72 67.5 83.92 67.59 84.12 67.69 84.32 67.79 84.71 67.99 85.1 68.19 85.49 68.41 86.27 68.84 87.04 69.27 87.42 69.49 87.8 69.71 87.99 69.83 88.18 69.95 88.36 70.06 88.55 70.19 88.73 70.31 88.91 70.43 89.09 70.56 89.27 70.69 89.45 70.82 89.62 70.96 89.8 71.09 89.97 71.23 90.14 71.37 90.31 71.51 90.65 71.8 90.98 72.09 91.31 72.38 91.64 72.69 91.95 72.99 92.27 73.3 92.58 73.62 92.89 73.93 93.2 74.25 93.5 74.57 93.8 74.9 94.4 75.55 94.99 76.2 95.59 76.85 96.18 77.51 96.77 78.17 97.35 78.83 97.93 79.5 98.5 80.17 99.07 80.85 99.63 81.53 100.19 82.21 100.74 82.9 101.29 83.59 103.49 86.36 1.6 86.36"
      />
    </g>
  </g>
</svg>
