<?xml version="1.0" encoding="UTF-8"?>
<svg version="1.1" viewBox="0 0 1599 238" xmlns="http://www.w3.org/2000/svg">
  <g fill="none" fill-rule="evenodd">
    <polygon points="11.056 191.45 22.268 184.6 33.48 177.75 39.086 174.48 44.692 171.21 50.298 167.94 55.903 164.67 61.665 161.55 67.427 158.44 73.188 155.32 78.95 152.21 84.712 149.25 90.629 146.29 96.391 143.33 102.31 140.53 108.23 137.57 113.99 134.77 120.06 132.12 125.98 129.32 131.89 126.67 137.81 124.02 143.89 121.38 149.96 118.89 155.88 116.39 161.95 113.9 168.02 111.41 174.09 108.92 180.17 106.58 186.24 104.25 192.31 101.91 198.54 99.733 204.62 97.397 210.84 95.217 216.92 93.037 223.15 91.012 229.38 88.988 235.6 86.964 241.83 84.939 248.06 83.071 254.29 81.202 260.52 79.333 266.9 77.62 273.13 75.907 279.52 74.35 285.9 72.793 292.13 71.236 298.52 69.679 304.9 68.277 311.28 66.876 317.67 65.63 324.21 64.384 330.59 63.138 336.98 62.048 343.52 60.958 349.9 59.868 356.29 58.934 362.83 58 369.37 57.065 375.75 56.287 382.29 55.508 388.83 54.885 395.37 54.262 401.76 53.639 408.3 53.172 414.84 52.705 421.38 52.394 427.92 52.082 434.46 51.771 441 51.615 447.54 51.459 454.08 51.459 460.62 51.459 467 51.459 473.54 51.615 480.08 51.927 486.62 52.082 493.17 52.549 499.71 52.861 506.25 53.484 512.79 53.951 519.17 54.73 525.71 55.352 532.25 56.131 538.64 57.065 545.18 58 551.56 59.09 558.1 60.18 564.48 61.425 570.87 62.671 577.25 63.917 583.64 65.318 590.02 66.876 596.41 68.433 602.79 69.99 609.18 71.703 615.41 73.416 621.63 75.285 628.02 77.153 634.25 79.178 640.48 81.202 646.55 83.226 652.78 85.406 658.85 87.742 665.08 90.078 671.15 92.414 677.23 94.75 683.14 97.241 689.22 99.733 695.29 102.22 701.21 104.87 707.12 107.52 719.11 112.81 730.95 118.26 742.78 123.87 766.45 135.08 778.29 140.53 790.12 146.14 801.96 151.59 813.95 157.04 825.78 162.33 837.77 167.47 849.92 172.61 861.91 177.59 867.98 180.08 874.06 182.58 880.13 184.91 886.2 187.25 892.28 189.58 898.35 191.92 904.58 194.1 910.65 196.43 916.88 198.61 922.95 200.64 929.18 202.82 935.41 204.84 941.64 206.87 947.87 208.74 954.1 210.61 960.48 212.47 966.71 214.19 973.09 215.74 979.32 217.3 985.71 218.7 992.09 220.1 998.63 221.35 1005 222.44 1011.4 223.53 1017.9 224.46 1024.3 225.24 1030.9 226.02 1037.4 226.64 1043.9 227.27 1050.5 227.73 1057 228.2 1063.6 228.51 1070.1 228.67 1076.6 228.82 1083.2 228.82 1089.7 228.82 1096.1 228.67 1102.7 228.51 1109.2 228.36 1115.7 228.05 1122.3 227.73 1128.8 227.27 1135.4 226.8 1141.9 226.33 1148.3 225.71 1154.8 225.09 1161.4 224.46 1167.9 223.84 1180.8 222.28 1193.9 220.73 1206.8 219.17 1219.8 217.46 1232.7 215.59 1245.6 213.88 1258.5 212.01 1271.5 209.98 1297.3 206.09 1310.2 204.22 1323.2 202.35 1336.1 200.64 1342.5 199.7 1349 198.93 1355.5 198.15 1361.9 197.52 1368.5 196.75 1375 196.12 1381.5 195.5 1387.9 195.03 1394.5 194.57 1401 194.25 1407.6 193.94 1414.1 193.63 1420.6 193.48 1427.2 193.32 1433.7 193.32 1440.3 193.48 1446.8 193.63 1453.3 193.79 1459.9 194.25 1466.4 194.72 1473 195.19 1479.3 195.97 1485.9 196.75 1492.4 197.68 1498.8 198.77 1505.2 199.86 1511.7 201.26 1518 202.66 1521.2 203.44 1524.3 204.22 1527.6 205.16 1530.7 206.09 1533.8 207.02 1537 207.96 1540.1 208.89 1543.2 209.98 1546.3 211.07 1549.3 212.16 1552.4 213.41 1555.3 214.65 1558.4 215.9 1561.4 217.15 1564.4 218.55 1567.3 219.95 1570.3 221.35 1573.1 222.75 1576 224.31 1578.8 225.87 1581.8 227.42 1584.6 229.14 1590.2 232.41 1595.8 235.83 1598.9 237.84 1598.9 232.87 1598.9 223.53 1598.9 0.073567 0 0.073567 0 198.3"
      fill="#fff" />
  </g>
</svg>
