<?xml version="1.0" encoding="UTF-8"?>
<svg width="259px" height="246px" viewBox="0 0 259 246" version="1.1" xmlns="http://www.w3.org/2000/svg" xmlns:xlink="http://www.w3.org/1999/xlink">
    <!-- Generator: Sketch 50.2 (55047) - http://www.bohemiancoding.com/sketch -->
    <title>Page 1</title>
    <desc>Created with Sketch.</desc>
    <defs></defs>
    <g id="Page-1" stroke="none" stroke-width="1" fill="none" fill-rule="evenodd">
        <g id="home" transform="translate(-1341.000000, -7918.000000)">
            <g id="Page-1" transform="translate(1471.000000, 8040.000000) scale(-1, -1) translate(-1471.000000, -8040.000000) translate(1341.000000, 7917.000000)">
                <g id="Group-11" transform="translate(0.763636, 0.045455)">
                    <path d="M235.763825,48.6645382 L197.660116,48.6645382 C196.255462,48.6645382 194.959462,49.4133382 194.257789,50.6281745 L175.206589,83.6277382 C174.504916,84.8425745 174.504916,86.3388655 175.206589,87.5550109 L194.257789,120.553265 C194.959462,121.768102 196.255462,122.516902 197.660116,122.516902 L235.763825,122.516902 C237.165862,122.516902 238.463171,121.768102 239.164844,120.553265 L258.216044,87.5550109 C258.917716,86.3388655 258.917716,84.8425745 258.216044,83.6277382 L239.164844,50.6281745 C238.463171,49.4133382 237.165862,48.6645382 235.763825,48.6645382" id="Fill-5" fill="#FF8166"></path>
                    <path d="M231.825033,42.0999709 L193.721324,42.0999709 C192.316669,42.0999709 191.020669,42.8487709 190.318996,44.0636073 L171.267796,77.0631709 C170.566124,78.2780073 170.566124,79.7742982 171.267796,80.9904436 L190.318996,113.988698 C191.020669,115.203535 192.316669,115.952335 193.721324,115.952335 L231.825033,115.952335 C233.227069,115.952335 234.524378,115.203535 235.226051,113.988698 L254.277251,80.9904436 C254.978924,79.7742982 254.978924,78.2780073 254.277251,77.0631709 L235.226051,44.0636073 C234.524378,42.8487709 233.227069,42.0999709 231.825033,42.0999709 Z" id="Stroke-7" stroke="#8CE8E0" stroke-width="0.752"></path>
                    <polyline id="Stroke-9" stroke="#8CE8E0" stroke-width="0.752" points="85.0615589 227.045455 150.94704 227.045455 216.410749 113.654618 150.94704 0.265090909 0.236363636 0.265090909"></polyline>
                </g>
                <path d="M104.6736,235.610211 C104.303127,235.779084 103.808291,235.802647 103.389382,235.802647 L100.028945,235.802647 L100.028945,230.584611 L103.512436,230.584611 C105.167127,230.584611 106.130618,231.618793 106.130618,233.133411 C106.105745,234.239593 105.587345,235.250211 104.6736,235.610211 Z M100.005382,223.442211 L102.795055,223.442211 C103.439127,223.442211 103.956218,223.537775 104.352873,223.706647 C105.068945,224.067956 105.389673,224.837702 105.389673,225.703011 C105.389673,227.073629 104.598982,228.010938 103.166836,228.010938 L99.9805091,228.010938 L99.9805091,223.442211 L100.005382,223.442211 Z M106.5744,229.165556 L106.5744,229.11712 C108.007855,228.395811 108.797236,227.025193 108.797236,225.366575 C108.797236,223.393775 107.687127,221.927593 106.057309,221.300538 C105.315055,221.013847 104.598982,220.893411 103.661673,220.844975 L103.661673,218.366865 C103.661673,218.271302 103.587055,218.199302 103.487564,218.199302 L102.055418,218.199302 C101.955927,218.199302 101.881309,218.271302 101.881309,218.366865 L101.881309,220.820102 L99.9805091,220.820102 L99.9805091,218.366865 C99.9805091,218.271302 99.9058909,218.199302 99.8064,218.199302 L98.3742545,218.199302 C98.2760727,218.199302 98.2027636,218.271302 98.2027636,218.366865 L98.2027636,220.820102 L94.9169455,220.820102 C94.7192727,220.820102 94.5464727,220.964102 94.5464727,221.181411 L94.5464727,222.936902 C94.5464727,223.129338 94.6944,223.298211 94.9169455,223.298211 L95.7063273,223.298211 C96.2757818,223.298211 96.7195636,223.753775 96.7195636,224.283956 L96.7195636,234.984465 C96.7195636,235.538211 96.2496,235.970211 95.7063273,235.970211 L94.9169455,235.970211 C94.7192727,235.970211 94.5464727,236.11552 94.5464727,236.332829 L94.5464727,238.063447 C94.5464727,238.255884 94.6944,238.423447 94.9169455,238.423447 L98.2027636,238.423447 L98.2027636,240.876684 C98.2027636,240.973556 98.2760727,241.045556 98.3742545,241.045556 L99.8064,241.045556 C99.9058909,241.045556 99.9805091,240.973556 99.9805091,240.876684 L99.9805091,238.423447 L101.881309,238.423447 L101.881309,240.876684 C101.881309,240.973556 101.955927,241.045556 102.055418,241.045556 L103.487564,241.045556 C103.587055,241.045556 103.661673,240.973556 103.661673,240.876684 L103.661673,238.399884 C104.475927,238.399884 105.167127,238.327884 105.932945,238.111884 C107.883491,237.509702 109.514618,235.779084 109.514618,233.325847 C109.489745,231.474793 108.574691,229.766429 106.5744,229.165556 Z" id="Fill-13" fill="#373A5E"></path>
                <g id="Group-61" transform="translate(79.436364, 199.509091)">
                    <path d="M29.34608,9.81444364 L11.9037527,9.81444364 C10.9677527,9.81444364 10.1037527,10.3132073 9.63509818,11.1235345 L0.913934545,26.2291345 C0.446589091,27.0394618 0.446589091,28.0369891 0.913934545,28.8473164 L9.63509818,43.9542255 C10.1037527,44.7632436 10.9677527,45.2633164 11.9037527,45.2633164 L29.34608,45.2633164 C30.28208,45.2633164 31.14608,44.7632436 31.6134255,43.9542255 L40.3358982,28.8473164 C40.8032436,28.0369891 40.8032436,27.0394618 40.3358982,26.2291345 L31.6134255,11.1235345 C31.14608,10.3132073 30.28208,9.81444364 29.34608,9.81444364" id="Fill-45" fill="#17CBBB"></path>
                    <path d="M86.5753455,0.37472 L69.1330182,0.37472 C68.1970182,0.37472 67.3330182,0.873483636 66.8643636,1.68381091 L58.1432,16.7894109 C57.6758545,17.5997382 57.6758545,18.5985745 58.1432,19.4075927 L66.8643636,34.5145018 C67.3330182,35.3248291 68.1970182,35.8235927 69.1330182,35.8235927 L86.5753455,35.8235927 C87.5113455,35.8235927 88.3753455,35.3248291 88.8426909,34.5145018 L97.5651636,19.4075927 C98.0325091,18.5985745 98.0325091,17.5997382 97.5651636,16.7894109 L88.8426909,1.68381091 C88.3753455,0.873483636 87.5113455,0.37472 86.5753455,0.37472" id="Fill-47" fill="#16CCBB"></path>
                </g>
                <g id="Group-113" transform="translate(159.000000, 86.445455)">
                    <path d="M54.0301964,5.99314909 L22.3632873,5.99314909 C21.4272873,5.99314909 20.5632873,6.49191273 20.0946327,7.30224 L4.26117818,34.7263855 C3.79383273,35.5367127 3.79383273,36.5355491 4.26117818,37.3445673 L20.0946327,64.7700218 C20.5632873,65.5803491 21.4272873,66.0791127 22.3632873,66.0791127 L54.0301964,66.0791127 C54.9661964,66.0791127 55.8301964,65.5803491 56.2975418,64.7700218 L72.1309964,37.3445673 C72.5996509,36.5355491 72.5996509,35.5367127 72.1309964,34.7263855 L56.2975418,7.30224 C55.8301964,6.49191273 54.9661964,5.99314909 54.0301964,5.99314909" id="Fill-83" fill="#FFCB66"></path>
                    <path d="M50.6756509,0.317061818 L19.0087418,0.317061818 C18.0740509,0.317061818 17.2087418,0.815825455 16.7413964,1.62615273 L0.906632727,29.0502982 C0.439287273,29.8606255 0.439287273,30.8594618 0.906632727,31.66848 L16.7413964,59.0926255 C17.2087418,59.9042618 18.0740509,60.4017164 19.0087418,60.4017164 L50.6756509,60.4017164 C51.6116509,60.4017164 52.4756509,59.9042618 52.9429964,59.0926255 L68.7764509,31.66848 C69.2451055,30.8594618 69.2451055,29.8606255 68.7764509,29.0502982 L52.9429964,1.62615273 C52.4756509,0.815825455 51.6116509,0.317061818 50.6756509,0.317061818 Z" id="Stroke-85" stroke="#8CE8E0" stroke-width="0.752"></path>
                    <path d="M48.5049164,15.56208 L27.8867345,15.56208 C26.9520436,15.56208 26.0880436,16.0608436 25.6206982,16.8711709 L15.3116073,34.7271709 C14.8429527,35.5374982 14.8429527,36.5350255 15.3116073,37.3453527 L25.6206982,55.2013527 C26.0880436,56.0103709 26.9520436,56.5104436 27.8867345,56.5104436 L48.5049164,56.5104436 C49.4409164,56.5104436 50.3049164,56.0103709 50.7722618,55.2013527 L61.0813527,37.3453527 C61.5500073,36.5350255 61.5500073,35.5374982 61.0813527,34.7271709 L50.7722618,16.8711709 C50.3049164,16.0608436 49.4409164,15.56208 48.5049164,15.56208" id="Fill-111" fill="#FFFAF2"></path>
                </g>
            </g>
        </g>
    </g>
</svg>