<?xml version="1.0" encoding="UTF-8"?>
<svg width="263px" height="246px" viewBox="0 0 263 246" version="1.1" xmlns="http://www.w3.org/2000/svg" xmlns:xlink="http://www.w3.org/1999/xlink">
    <!-- Generator: Sketch 50.2 (55047) - http://www.bohemiancoding.com/sketch -->
    <title>Page 1</title>
    <desc>Created with Sketch.</desc>
    <defs></defs>
    <g id="Page-1" stroke="none" stroke-width="1" fill="none" fill-rule="evenodd">
        <g id="home" transform="translate(0.000000, -7770.000000)">
            <g id="Page-1" transform="translate(-1.000000, 7771.000000)">
                <g id="Group-11" transform="translate(0.763636, 0.045455)">
                    <path d="M239.763825,48.6645382 L201.660116,48.6645382 C200.255462,48.6645382 198.959462,49.4133382 198.257789,50.6281745 L179.206589,83.6277382 C178.504916,84.8425745 178.504916,86.3388655 179.206589,87.5550109 L198.257789,120.553265 C198.959462,121.768102 200.255462,122.516902 201.660116,122.516902 L239.763825,122.516902 C241.165862,122.516902 242.463171,121.768102 243.164844,120.553265 L262.216044,87.5550109 C262.917716,86.3388655 262.917716,84.8425745 262.216044,83.6277382 L243.164844,50.6281745 C242.463171,49.4133382 241.165862,48.6645382 239.763825,48.6645382" id="Fill-5" fill="#FF8166"></path>
                    <path d="M235.825033,42.0999709 L197.721324,42.0999709 C196.316669,42.0999709 195.020669,42.8487709 194.318996,44.0636073 L175.267796,77.0631709 C174.566124,78.2780073 174.566124,79.7742982 175.267796,80.9904436 L194.318996,113.988698 C195.020669,115.203535 196.316669,115.952335 197.721324,115.952335 L235.825033,115.952335 C237.227069,115.952335 238.524378,115.203535 239.226051,113.988698 L258.277251,80.9904436 C258.978924,79.7742982 258.978924,78.2780073 258.277251,77.0631709 L239.226051,44.0636073 C238.524378,42.8487709 237.227069,42.0999709 235.825033,42.0999709 Z" id="Stroke-7" stroke="#8CE8E0" stroke-width="0.752"></path>
                    <polyline id="Stroke-9" stroke="#8CE8E0" stroke-width="0.752" points="89.0615589 227.045455 154.94704 227.045455 220.410749 113.654618 154.94704 0.265090909 0.236363636 0.265090909"></polyline>
                </g>
                <path d="M108.6736,235.610211 C108.303127,235.779084 107.808291,235.802647 107.389382,235.802647 L104.028945,235.802647 L104.028945,230.584611 L107.512436,230.584611 C109.167127,230.584611 110.130618,231.618793 110.130618,233.133411 C110.105745,234.239593 109.587345,235.250211 108.6736,235.610211 Z M104.005382,223.442211 L106.795055,223.442211 C107.439127,223.442211 107.956218,223.537775 108.352873,223.706647 C109.068945,224.067956 109.389673,224.837702 109.389673,225.703011 C109.389673,227.073629 108.598982,228.010938 107.166836,228.010938 L103.980509,228.010938 L103.980509,223.442211 L104.005382,223.442211 Z M110.5744,229.165556 L110.5744,229.11712 C112.007855,228.395811 112.797236,227.025193 112.797236,225.366575 C112.797236,223.393775 111.687127,221.927593 110.057309,221.300538 C109.315055,221.013847 108.598982,220.893411 107.661673,220.844975 L107.661673,218.366865 C107.661673,218.271302 107.587055,218.199302 107.487564,218.199302 L106.055418,218.199302 C105.955927,218.199302 105.881309,218.271302 105.881309,218.366865 L105.881309,220.820102 L103.980509,220.820102 L103.980509,218.366865 C103.980509,218.271302 103.905891,218.199302 103.8064,218.199302 L102.374255,218.199302 C102.276073,218.199302 102.202764,218.271302 102.202764,218.366865 L102.202764,220.820102 L98.9169455,220.820102 C98.7192727,220.820102 98.5464727,220.964102 98.5464727,221.181411 L98.5464727,222.936902 C98.5464727,223.129338 98.6944,223.298211 98.9169455,223.298211 L99.7063273,223.298211 C100.275782,223.298211 100.719564,223.753775 100.719564,224.283956 L100.719564,234.984465 C100.719564,235.538211 100.2496,235.970211 99.7063273,235.970211 L98.9169455,235.970211 C98.7192727,235.970211 98.5464727,236.11552 98.5464727,236.332829 L98.5464727,238.063447 C98.5464727,238.255884 98.6944,238.423447 98.9169455,238.423447 L102.202764,238.423447 L102.202764,240.876684 C102.202764,240.973556 102.276073,241.045556 102.374255,241.045556 L103.8064,241.045556 C103.905891,241.045556 103.980509,240.973556 103.980509,240.876684 L103.980509,238.423447 L105.881309,238.423447 L105.881309,240.876684 C105.881309,240.973556 105.955927,241.045556 106.055418,241.045556 L107.487564,241.045556 C107.587055,241.045556 107.661673,240.973556 107.661673,240.876684 L107.661673,238.399884 C108.475927,238.399884 109.167127,238.327884 109.932945,238.111884 C111.883491,237.509702 113.514618,235.779084 113.514618,233.325847 C113.489745,231.474793 112.574691,229.766429 110.5744,229.165556 Z" id="Fill-13" fill="#373A5E"></path>
                <g id="Group-61" transform="translate(83.436364, 199.509091)">
                    <path d="M29.34608,9.81444364 L11.9037527,9.81444364 C10.9677527,9.81444364 10.1037527,10.3132073 9.63509818,11.1235345 L0.913934545,26.2291345 C0.446589091,27.0394618 0.446589091,28.0369891 0.913934545,28.8473164 L9.63509818,43.9542255 C10.1037527,44.7632436 10.9677527,45.2633164 11.9037527,45.2633164 L29.34608,45.2633164 C30.28208,45.2633164 31.14608,44.7632436 31.6134255,43.9542255 L40.3358982,28.8473164 C40.8032436,28.0369891 40.8032436,27.0394618 40.3358982,26.2291345 L31.6134255,11.1235345 C31.14608,10.3132073 30.28208,9.81444364 29.34608,9.81444364" id="Fill-45" fill="#17CBBB"></path>
                    <path d="M86.5753455,0.37472 L69.1330182,0.37472 C68.1970182,0.37472 67.3330182,0.873483636 66.8643636,1.68381091 L58.1432,16.7894109 C57.6758545,17.5997382 57.6758545,18.5985745 58.1432,19.4075927 L66.8643636,34.5145018 C67.3330182,35.3248291 68.1970182,35.8235927 69.1330182,35.8235927 L86.5753455,35.8235927 C87.5113455,35.8235927 88.3753455,35.3248291 88.8426909,34.5145018 L97.5651636,19.4075927 C98.0325091,18.5985745 98.0325091,17.5997382 97.5651636,16.7894109 L88.8426909,1.68381091 C88.3753455,0.873483636 87.5113455,0.37472 86.5753455,0.37472" id="Fill-47" fill="#16CCBB"></path>
                </g>
                <g id="Group-113" transform="translate(163.000000, 86.445455)">
                    <path d="M54.0301964,5.99314909 L22.3632873,5.99314909 C21.4272873,5.99314909 20.5632873,6.49191273 20.0946327,7.30224 L4.26117818,34.7263855 C3.79383273,35.5367127 3.79383273,36.5355491 4.26117818,37.3445673 L20.0946327,64.7700218 C20.5632873,65.5803491 21.4272873,66.0791127 22.3632873,66.0791127 L54.0301964,66.0791127 C54.9661964,66.0791127 55.8301964,65.5803491 56.2975418,64.7700218 L72.1309964,37.3445673 C72.5996509,36.5355491 72.5996509,35.5367127 72.1309964,34.7263855 L56.2975418,7.30224 C55.8301964,6.49191273 54.9661964,5.99314909 54.0301964,5.99314909" id="Fill-83" fill="#FFCB66"></path>
                    <path d="M50.6756509,0.317061818 L19.0087418,0.317061818 C18.0740509,0.317061818 17.2087418,0.815825455 16.7413964,1.62615273 L0.906632727,29.0502982 C0.439287273,29.8606255 0.439287273,30.8594618 0.906632727,31.66848 L16.7413964,59.0926255 C17.2087418,59.9042618 18.0740509,60.4017164 19.0087418,60.4017164 L50.6756509,60.4017164 C51.6116509,60.4017164 52.4756509,59.9042618 52.9429964,59.0926255 L68.7764509,31.66848 C69.2451055,30.8594618 69.2451055,29.8606255 68.7764509,29.0502982 L52.9429964,1.62615273 C52.4756509,0.815825455 51.6116509,0.317061818 50.6756509,0.317061818 Z" id="Stroke-85" stroke="#8CE8E0" stroke-width="0.752"></path>
                    <path d="M48.5049164,15.56208 L27.8867345,15.56208 C26.9520436,15.56208 26.0880436,16.0608436 25.6206982,16.8711709 L15.3116073,34.7271709 C14.8429527,35.5374982 14.8429527,36.5350255 15.3116073,37.3453527 L25.6206982,55.2013527 C26.0880436,56.0103709 26.9520436,56.5104436 27.8867345,56.5104436 L48.5049164,56.5104436 C49.4409164,56.5104436 50.3049164,56.0103709 50.7722618,55.2013527 L61.0813527,37.3453527 C61.5500073,36.5350255 61.5500073,35.5374982 61.0813527,34.7271709 L50.7722618,16.8711709 C50.3049164,16.0608436 49.4409164,15.56208 48.5049164,15.56208" id="Fill-111" fill="#FFFAF2"></path>
                </g>
            </g>
        </g>
    </g>
</svg>