<?xml version="1.0" encoding="UTF-8"?>
<svg width="366px" height="138px" viewBox="0 0 366 138" version="1.1" xmlns="http://www.w3.org/2000/svg" xmlns:xlink="http://www.w3.org/1999/xlink">
    <!-- Generator: Sketch 50.2 (55047) - http://www.bohemiancoding.com/sketch -->
    <title>9</title>
    <desc>Created with Sketch.</desc>
    <defs></defs>
    <g id="Page-1" stroke="none" stroke-width="1" fill="none" fill-rule="evenodd">
        <g id="9" transform="translate(-1.000000, -1.000000)" fill-rule="nonzero">
            <path d="M183.99814,1.02384 C82.42114,1.02384 0.99714,31.46884 0.99714,69.64484 C0.99714,107.58284 83.09114,138.26384 183.99814,138.26384 C284.90914,138.26384 366.99914,107.48684 366.99914,69.64484 C366.99514,31.80784 284.90614,1.02384 183.99814,1.02384 Z" id="Shape" fill="#00307A"></path>
            <g id="g4156" transform="translate(182.607285, 68.934324) scale(-1, 1) rotate(-180.000000) translate(-182.607285, -68.934324) translate(7.862728, 7.045626)" fill="#FFFFFF">
                <g id="g4158">
                    <g id="g4164">
                        <g id="g4166">
                            <path d="M3.43664295,61.197 C3.43664295,28.0028152 80.7501878,1.09579399 176.124311,1.09579399 C271.491153,1.09579399 348.797416,28.0028152 348.797416,61.197 C348.797416,94.3911848 271.491153,121.294565 176.124311,121.294565 C80.7501878,121.294565 3.43664295,94.3911848 3.43664295,61.197 M9.5090163,61.197 C9.5090163,91.5188211 84.0994585,116.092274 176.12067,116.092274 C268.141882,116.092274 342.728684,91.5188211 342.728684,61.197 C342.728684,30.8751789 268.141882,6.29080404 176.12067,6.29080404 C84.0994585,6.29080404 9.51265681,30.8751789 9.5090163,61.197" id="path4180"></path>
                        </g>
                    </g>
                </g>
            </g>
            <g id="g4182" transform="translate(211.731378, 79.855858) scale(-1, 1) rotate(-180.000000) translate(-211.731378, -79.855858) translate(131.640122, 47.091254)" fill="#FFFFFF">
                <g id="g4184">
                    <g id="g4190">
                        <g id="g4192">
                            <path d="M150.07281,63.3776664 C149.388394,63.3776664 149.038904,63.2939347 148.714899,62.6604857 C147.651869,60.6254397 134.728053,41.257918 132.325316,37.4972695 C131.921219,36.9257092 131.422469,37.0058004 131.367861,37.657452 C131.123947,39.8927261 129.194476,42.4556463 126.154648,43.6897797 C123.842924,44.6253912 121.571244,44.8001357 119.223114,44.4906923 C114.970997,43.9191319 111.184865,41.6729363 107.857437,39.1427807 C102.833531,35.3311651 98.5086034,30.3837098 92.9167776,26.7322767 C89.8696694,24.7445573 85.6867215,23.0043928 82.8980896,25.5927965 C80.3679341,27.937286 80.651894,33.1468581 84.5181173,37.1769045 C84.9258546,37.6028443 85.4209642,37.2533552 85.3445134,36.8711015 C84.9768218,35.0435647 85.4282452,33.2342304 86.8079991,31.9636918 C88.500837,30.4528795 90.9144962,30.2817755 92.9823068,31.2901972 C95.4250901,32.4988471 96.8594516,34.832415 97.2781105,37.4899885 C97.9261215,41.6001261 94.7588764,45.2260756 90.7979998,45.5173165 C87.5834281,45.7430283 84.4962742,44.6253912 81.4892117,42.1425623 C79.9856804,40.8938668 79.1265196,39.9691769 77.826857,38.1125159 C77.506492,37.6610925 77.0186634,37.6137659 77.036866,38.28362 C77.1861269,43.5514403 75.009101,46.5075357 70.6550491,46.6131105 C67.2802949,46.6932018 63.6652669,44.8547434 60.8511514,42.6158288 C57.7676381,40.1366404 55.0663785,36.8601799 52.1830933,33.7730261 C51.8226826,33.3907724 51.5059581,33.408975 51.4040238,34.1407178 C51.320292,37.6319684 50.4392882,41.0103632 48.8265416,43.4094603 C48.2549813,44.2431375 47.0536124,44.6581558 46.0415502,44.0938765 C45.5755647,43.8426812 43.9518965,43.0927358 42.7687303,42.1389218 C42.1862484,41.6547337 41.9532557,40.9557555 42.2153725,40.0601896 C43.7735115,34.8542581 43.4349439,28.9238647 41.3161661,23.9254422 C39.3757735,19.3420381 35.6005629,15.2027764 31.1664198,13.8084605 C28.243089,12.88013 25.2069023,13.3315535 23.3283983,15.9199572 C20.7472756,19.4949396 21.7921024,25.7129334 25.6401232,30.8751789 C29.0367205,35.4185374 33.9441302,38.3054631 38.8442588,40.1657645 C39.4231001,40.3878357 39.543237,40.7591679 39.3757735,41.2469964 C39.1100161,42.0515495 38.6840763,43.1473435 38.5129722,43.6497341 C38.0651893,44.8438219 36.8019318,45.0404095 35.2656359,44.8693055 C31.708856,44.4579277 28.4979248,43.2347158 25.3233987,41.5382374 C17.0157512,37.0931727 12.8546465,28.4797222 11.0307501,23.8781156 C10.1497463,21.661044 9.39980095,20.2849306 8.42778435,19.0580782 C7.1244812,17.4089265 5.47532945,15.9163167 2.46826686,13.2733053 C2.20250952,13.0330315 1.99864087,12.5306409 2.22435259,12.0610149 C2.53379607,11.4312064 4.09921606,9.21777537 4.53971797,9.02118774 C5.02754652,8.78091398 5.59910684,9.11584105 5.82481856,9.27966407 C7.92903426,10.7031041 10.4446278,12.9638618 11.6787612,14.4965172 C12.1047011,15.0207509 12.5488435,14.7986797 12.7818362,14.0050481 C13.9322379,9.90947258 16.9393005,6.55656139 21.1004052,5.15860494 C28.7163555,2.59204426 36.6126252,6.3090066 42.5794237,12.7818362 C46.3691962,16.8956143 47.7343881,19.5422663 49.1942333,21.340679 C51.6515786,24.3877872 56.5080211,31.2137465 62.292794,35.5896414 C64.4115717,37.2133096 66.9235247,38.440162 68.1831418,37.6246874 C69.195204,36.9693953 69.530131,35.4403804 67.8991819,32.484285 C62.0051936,21.7120112 53.3298544,9.0685144 51.7353103,5.99592261 C51.4404289,5.46804842 51.6916242,5.04574908 52.2559035,5.04574908 C55.3430573,5.06395164 58.3974466,5.05667061 61.2006405,5.05667061 C61.666626,5.07851368 61.8741352,5.28966335 62.1107684,5.62459042 C66.6322838,12.7053855 70.8953229,19.447613 75.4568839,26.4191927 C75.7153603,26.8232895 75.9447125,26.506565 75.9592745,26.3281799 C76.0539278,24.7081522 76.4507436,22.4947212 77.4154792,21.042157 C79.1374412,18.3554595 81.583865,17.2050578 84.2996866,17.1868553 C86.4548695,17.1613717 87.547023,17.4890177 89.8696694,18.3554595 C91.7663759,19.0617187 93.2881098,19.9791277 94.4530735,20.8200858 C95.1302086,21.2897118 95.2503455,20.4997208 95.2357835,20.3759434 C94.1873161,14.7549935 95.4833382,8.09285729 101.071524,5.32970898 C107.762784,2.03504598 115.109336,6.66941725 119.339611,10.8487246 C119.750989,11.2528214 120.19149,11.2091352 120.235177,10.3426935 C120.318908,8.74814937 121.050651,6.84780232 122.368516,5.51901559 C125.907094,1.96587626 133.064339,3.37475425 140.236147,8.92653444 C144.841395,12.4796738 149.661432,17.5072203 154.011843,22.8296482 C154.175666,23.0335169 154.295803,23.368444 153.968157,23.703371 C153.305584,24.3914277 152.344489,25.1850592 151.689197,25.8003057 C151.390675,26.051501 150.953813,25.9823313 150.695337,25.7857437 C146.23571,21.5445476 142.216586,16.7063077 136.40997,12.701745 C134.455015,11.3329126 131.331456,10.2334781 129.929859,12.1301847 C129.383782,12.872849 129.449311,13.8885518 129.988107,15.22826 C131.680945,19.447613 158.478751,60.250467 159.869426,62.6604857 C160.113341,63.0791445 159.869426,63.3849475 159.330631,63.3849475 C156.571123,63.3849475 152.952454,63.3776664 150.080091,63.3776664 M107.580758,13.2332597 C106.204645,13.9467999 105.60396,15.8762711 105.636725,17.4307695 C105.709535,21.8285076 107.653569,26.3354609 111.257675,30.7732446 C115.659054,36.1794043 120.519137,38.9971603 123.711865,37.4535833 C127.010169,35.8808823 125.95442,32.0583451 124.480013,29.0585636 C124.374438,28.8219303 124.363517,28.6289832 124.421765,28.4360361 C124.472732,28.1265926 124.880469,27.8244302 125.277285,27.6824502 C125.419265,27.6278425 125.499356,27.5259082 125.339174,27.2019027 C124.199694,24.7591194 123.151226,23.3466009 121.724146,21.2278231 C120.413562,19.2692279 118.931873,17.7365725 117.137101,16.2658058 C115.051088,14.5438438 112.338907,12.6944639 109.786908,12.6944639 C109.033322,12.6944639 108.287018,12.8546465 107.580758,13.2332597" id="path4206"></path>
                        </g>
                    </g>
                </g>
            </g>
            <g id="g4208" transform="translate(158.943959, 65.293812) scale(-1, 1) rotate(-180.000000) translate(-158.943959, -65.293812) translate(77.032448, 21.607673)" fill="#FFFFFF">
                <g id="g4210">
                    <g id="g4216">
                        <g id="g4218">
                            <path d="M62.2163432,84.4817122 C59.6570636,84.4817122 57.0905029,84.3834184 54.5020992,84.1759092 C38.0287842,82.7852338 22.3600222,73.5128507 22.3236171,59.4386329 C22.3236171,52.2959491 27.3875688,46.5148167 35.2510738,46.766012 C44.4943328,47.0827365 52.0775184,54.4802561 56.0529571,63.8145278 C57.5601289,67.3567456 54.764216,68.8275123 53.4354293,66.7851853 C51.0618157,63.1119091 47.7234666,60.265029 44.1084385,58.4920999 C39.7580272,56.3624006 35.1127344,56.9376014 33.7074969,60.4725382 C31.7270586,65.4527581 35.8444772,72.9012448 45.2406377,76.410698 C58.8161054,81.434604 73.0177412,78.1071764 86.6769407,75.5406157 C86.8735283,75.5406157 87.6016306,75.1365189 86.9536196,74.8015918 C84.5108363,73.4691646 82.1044581,72.3806516 78.3510907,69.1515178 C75.6571121,66.847074 72.1330968,63.7817632 69.4063537,60.4361331 C66.705094,57.1414701 64.7865444,54.1999367 62.2527484,50.9489598 C61.8959782,50.4720528 61.4627573,50.4975364 61.4700384,50.4975364 C55.2884497,49.4527096 49.2306384,48.7573719 43.6897797,44.9020701 C42.5430186,44.1120791 42.047909,42.7068416 42.7432467,41.6328907 C43.3694147,40.6790766 44.7928547,40.5807828 45.7794334,41.3016041 C49.2233573,43.8790863 52.7728562,45.0877362 56.8393076,45.200592 C57.0176927,45.1896705 57.0977839,45.1569059 57.1487511,45.0549716 C57.1924372,44.9930829 57.1487511,44.8620244 57.0905029,44.7637306 C50.9962865,36.3177437 49.4745526,34.4064751 44.8947891,29.1714195 C42.5502996,26.4810814 40.2458557,24.2094021 37.6683735,21.8430696 C27.2710724,12.1847923 16.0801397,12.3413343 12.068296,18.4064266 C9.67647983,22.0432977 9.98956383,25.8549134 11.5622648,29.025799 C13.491736,32.9029438 17.4016454,35.7461834 20.6526223,37.4062567 C21.8612722,38.0251437 22.2071208,39.5650801 20.9984709,40.966677 C20.2339635,41.8877265 18.3627405,42.0515495 16.9829866,41.7967137 C12.7199475,41.0067227 7.68511999,37.7885104 4.71082201,33.9113656 C1.36155134,29.5609542 -0.313083998,24.2822124 0.247554789,18.3591 C1.2559765,7.66327692 10.0587336,1.48532873 20.0519379,1.55813896 C28.0064557,1.62366817 35.5022691,4.03368685 44.5088948,13.1822925 C52.9148361,21.7192922 60.570832,34.4647233 67.7389993,46.2854645 C67.9610705,46.6677182 68.1212531,46.8715868 69.2134065,47.0062858 C73.7094384,47.5669246 80.3497315,48.2112951 84.5982086,48.4552094 C85.5483821,48.5098171 85.7413292,48.495255 86.1163019,48.025629 C87.2266579,46.6276726 88.8940122,45.4408658 90.222799,44.7200445 C90.87081,44.3632744 91.1802535,44.1921703 91.6935657,44.1776083 C92.3233742,44.1630462 92.8184838,44.5052543 93.1279272,44.865665 C93.5793507,45.364415 93.7031281,46.0051451 93.4664948,46.4238039 C93.2152995,46.8570248 90.2446421,48.5061766 90.1536293,49.1687497 C90.0881001,49.5874085 90.543164,49.6820618 90.543164,49.6820618 C92.7238305,50.366478 94.9918692,51.775356 96.3716231,54.4074459 C97.7222529,57.0031306 97.9406836,60.4652572 95.4651357,62.3874473 C93.2990313,64.0766447 90.0189303,63.8072468 87.405043,61.4627573 C84.8530444,59.1837971 83.9975241,55.867291 84.3506538,52.9621628 C84.408902,52.4597722 84.3943399,52.2850276 83.6990022,52.2304199 C79.7636092,51.9209764 75.9774771,51.8081206 71.7617647,51.5860494 C71.4814453,51.5642063 71.394073,51.7498724 71.557896,51.9501005 C76.4070575,60.3815254 83.6553161,66.384729 91.6680821,72.2969199 C92.1959563,72.6937356 92.0357738,73.450962 92.0139307,74.0807705 C106.481324,70.9353685 120.464529,65.0887069 135.481639,65.2088438 C141.685071,65.2634515 147.630026,66.2027034 153.305584,69.3226219 C158.304006,72.0493651 160.331771,74.5685991 160.477392,77.1861269 C160.597529,78.9991017 159.341552,80.1385819 157.54678,79.7526876 C142.376768,76.2650775 127.913016,76.3051231 112.815814,78.13266 C95.6981284,80.2077516 79.2684996,84.4744312 62.2381863,84.4744312 C62.2381863,84.4744312 62.2381863,84.4744312 62.1945002,84.4744312 M88.3552165,54.0943619 C88.1367858,55.696187 88.657379,57.8477293 90.37206,59.3621821 C91.2312207,60.1266896 92.3925439,60.3014341 93.1097247,59.6861877 C93.9069967,59.0017715 93.532024,57.3016526 92.7238305,56.1184863 C91.8464672,54.8188237 90.3429359,53.6939056 88.9813845,53.4208672 C88.9376984,53.4135862 88.9049338,53.4063052 88.8685287,53.4063052 C88.6391764,53.4099457 88.4535103,53.5701282 88.3552165,54.0943619" id="path4232"></path>
                        </g>
                    </g>
                </g>
            </g>
        </g>
    </g>
</svg>